<mxfile host="app.diagrams.net" agent="Mozilla/5.0 (Windows NT 10.0; Win64; x64) AppleWebKit/537.36 (KHTML, like Gecko) Chrome/129.0.0.0 Safari/537.36 Edg/129.0.0.0" version="24.7.17">
  <diagram name="Page-1" id="c_2UuUN7rSG2VyUxhNMW">
    <mxGraphModel dx="2720" dy="1414" grid="1" gridSize="10" guides="1" tooltips="1" connect="1" arrows="1" fold="1" page="1" pageScale="1" pageWidth="1169" pageHeight="827" math="0" shadow="0">
      <root>
        <mxCell id="0" />
        <mxCell id="1" parent="0" />
        <mxCell id="fv4rP1R8_KD0dWFkgrto-35" value="&lt;font style=&quot;font-size: 14px;&quot;&gt;Bootstrap ensemble&lt;/font&gt;" style="shape=hexagon;perimeter=hexagonPerimeter2;whiteSpace=wrap;html=1;fixedSize=1;strokeColor=#999999;" vertex="1" parent="1">
          <mxGeometry x="484" y="714" width="120" height="80" as="geometry" />
        </mxCell>
        <mxCell id="fv4rP1R8_KD0dWFkgrto-34" value="&lt;font style=&quot;font-size: 14px;&quot;&gt;Bootstrap ensemble&lt;/font&gt;" style="shape=hexagon;perimeter=hexagonPerimeter2;whiteSpace=wrap;html=1;fixedSize=1;strokeColor=#999999;" vertex="1" parent="1">
          <mxGeometry x="478" y="717" width="120" height="80" as="geometry" />
        </mxCell>
        <mxCell id="fv4rP1R8_KD0dWFkgrto-23" value="" style="rounded=0;whiteSpace=wrap;html=1;dashed=1;" vertex="1" parent="1">
          <mxGeometry x="441" y="383" width="184" height="307" as="geometry" />
        </mxCell>
        <mxCell id="fv4rP1R8_KD0dWFkgrto-17" value="" style="rounded=0;whiteSpace=wrap;html=1;dashed=1;" vertex="1" parent="1">
          <mxGeometry x="34" y="383" width="184" height="307" as="geometry" />
        </mxCell>
        <mxCell id="fv4rP1R8_KD0dWFkgrto-6" value="" style="edgeStyle=orthogonalEdgeStyle;rounded=0;orthogonalLoop=1;jettySize=auto;html=1;" edge="1" parent="1" source="fv4rP1R8_KD0dWFkgrto-1" target="fv4rP1R8_KD0dWFkgrto-3">
          <mxGeometry relative="1" as="geometry" />
        </mxCell>
        <mxCell id="fv4rP1R8_KD0dWFkgrto-1" value="&lt;font style=&quot;font-size: 14px;&quot;&gt;EPOS, EXPLICIT, 4D-EEG &amp;amp; EXPLORE cohorts&lt;br&gt;(n = 451)&lt;/font&gt;" style="rounded=0;whiteSpace=wrap;html=1;" vertex="1" parent="1">
          <mxGeometry x="553" y="20" width="170" height="70" as="geometry" />
        </mxCell>
        <mxCell id="fv4rP1R8_KD0dWFkgrto-10" style="edgeStyle=orthogonalEdgeStyle;rounded=0;orthogonalLoop=1;jettySize=auto;html=1;exitX=0.5;exitY=1;exitDx=0;exitDy=0;entryX=0.5;entryY=0;entryDx=0;entryDy=0;" edge="1" parent="1" source="fv4rP1R8_KD0dWFkgrto-3" target="fv4rP1R8_KD0dWFkgrto-8">
          <mxGeometry relative="1" as="geometry" />
        </mxCell>
        <mxCell id="fv4rP1R8_KD0dWFkgrto-11" style="edgeStyle=orthogonalEdgeStyle;rounded=0;orthogonalLoop=1;jettySize=auto;html=1;" edge="1" parent="1" source="fv4rP1R8_KD0dWFkgrto-3" target="fv4rP1R8_KD0dWFkgrto-9">
          <mxGeometry relative="1" as="geometry" />
        </mxCell>
        <mxCell id="fv4rP1R8_KD0dWFkgrto-3" value="&lt;span style=&quot;font-size: 14px;&quot;&gt;Modelling data&lt;br&gt;(n = 296)&lt;/span&gt;" style="rounded=0;whiteSpace=wrap;html=1;" vertex="1" parent="1">
          <mxGeometry x="553" y="150" width="170" height="70" as="geometry" />
        </mxCell>
        <mxCell id="fv4rP1R8_KD0dWFkgrto-7" style="edgeStyle=orthogonalEdgeStyle;rounded=0;orthogonalLoop=1;jettySize=auto;html=1;entryX=0.5;entryY=0;entryDx=0;entryDy=0;" edge="1" parent="1" target="fv4rP1R8_KD0dWFkgrto-3">
          <mxGeometry relative="1" as="geometry">
            <mxPoint x="453" y="119" as="sourcePoint" />
          </mxGeometry>
        </mxCell>
        <mxCell id="fv4rP1R8_KD0dWFkgrto-5" value="&lt;span style=&quot;font-size: 14px;&quot;&gt;Excluded patients with:&lt;/span&gt;&lt;div&gt;&lt;ul&gt;&lt;li&gt;&lt;span style=&quot;font-size: 14px;&quot;&gt;less than 2 measurements (n = 15)&lt;/span&gt;&lt;/li&gt;&lt;li&gt;&lt;span style=&quot;font-size: 14px;&quot;&gt;no observation within 180Â±14 days (n = 140)&lt;/span&gt;&lt;/li&gt;&lt;/ul&gt;&lt;/div&gt;" style="rounded=0;whiteSpace=wrap;html=1;align=left;" vertex="1" parent="1">
          <mxGeometry x="190" y="74" width="330" height="90" as="geometry" />
        </mxCell>
        <mxCell id="fv4rP1R8_KD0dWFkgrto-19" style="edgeStyle=orthogonalEdgeStyle;rounded=0;orthogonalLoop=1;jettySize=auto;html=1;exitX=0;exitY=0.5;exitDx=0;exitDy=0;" edge="1" parent="1" source="fv4rP1R8_KD0dWFkgrto-8" target="fv4rP1R8_KD0dWFkgrto-12">
          <mxGeometry relative="1" as="geometry" />
        </mxCell>
        <mxCell id="fv4rP1R8_KD0dWFkgrto-31" value="" style="edgeStyle=orthogonalEdgeStyle;rounded=0;orthogonalLoop=1;jettySize=auto;html=1;" edge="1" parent="1" source="fv4rP1R8_KD0dWFkgrto-8" target="fv4rP1R8_KD0dWFkgrto-25">
          <mxGeometry relative="1" as="geometry" />
        </mxCell>
        <mxCell id="fv4rP1R8_KD0dWFkgrto-8" value="&lt;font style=&quot;font-size: 14px;&quot;&gt;Training set&lt;br&gt;(n = 237)&lt;/font&gt;" style="rounded=1;whiteSpace=wrap;html=1;" vertex="1" parent="1">
          <mxGeometry x="473" y="290" width="120" height="60" as="geometry" />
        </mxCell>
        <mxCell id="fv4rP1R8_KD0dWFkgrto-39" style="edgeStyle=orthogonalEdgeStyle;rounded=0;orthogonalLoop=1;jettySize=auto;html=1;entryX=0.5;entryY=0;entryDx=0;entryDy=0;" edge="1" parent="1" source="fv4rP1R8_KD0dWFkgrto-9" target="fv4rP1R8_KD0dWFkgrto-38">
          <mxGeometry relative="1" as="geometry" />
        </mxCell>
        <mxCell id="fv4rP1R8_KD0dWFkgrto-9" value="&lt;font style=&quot;font-size: 14px;&quot;&gt;Test set&lt;br&gt;(n = 59)&lt;/font&gt;" style="rounded=1;whiteSpace=wrap;html=1;" vertex="1" parent="1">
          <mxGeometry x="683" y="290" width="120" height="60" as="geometry" />
        </mxCell>
        <mxCell id="fv4rP1R8_KD0dWFkgrto-15" style="edgeStyle=orthogonalEdgeStyle;rounded=0;orthogonalLoop=1;jettySize=auto;html=1;exitX=0.5;exitY=1;exitDx=0;exitDy=0;entryX=0.5;entryY=0;entryDx=0;entryDy=0;" edge="1" parent="1" source="fv4rP1R8_KD0dWFkgrto-12" target="fv4rP1R8_KD0dWFkgrto-13">
          <mxGeometry relative="1" as="geometry" />
        </mxCell>
        <mxCell id="fv4rP1R8_KD0dWFkgrto-12" value="&lt;font style=&quot;font-size: 14px;&quot;&gt;Balanced 5x5-fold cross-validation split&lt;/font&gt;" style="shape=process;whiteSpace=wrap;html=1;backgroundOutline=1;" vertex="1" parent="1">
          <mxGeometry x="56" y="414" width="140" height="60" as="geometry" />
        </mxCell>
        <mxCell id="fv4rP1R8_KD0dWFkgrto-16" value="" style="edgeStyle=orthogonalEdgeStyle;rounded=0;orthogonalLoop=1;jettySize=auto;html=1;" edge="1" parent="1" source="fv4rP1R8_KD0dWFkgrto-13" target="fv4rP1R8_KD0dWFkgrto-14">
          <mxGeometry relative="1" as="geometry" />
        </mxCell>
        <mxCell id="fv4rP1R8_KD0dWFkgrto-13" value="&lt;font style=&quot;font-size: 14px;&quot;&gt;Validation sets&lt;br&gt;&lt;/font&gt;" style="rounded=1;whiteSpace=wrap;html=1;" vertex="1" parent="1">
          <mxGeometry x="86" y="510" width="80" height="50" as="geometry" />
        </mxCell>
        <mxCell id="fv4rP1R8_KD0dWFkgrto-22" style="edgeStyle=orthogonalEdgeStyle;rounded=0;orthogonalLoop=1;jettySize=auto;html=1;entryX=0;entryY=0.5;entryDx=0;entryDy=0;" edge="1" parent="1" source="fv4rP1R8_KD0dWFkgrto-14" target="fv4rP1R8_KD0dWFkgrto-21">
          <mxGeometry relative="1" as="geometry" />
        </mxCell>
        <mxCell id="fv4rP1R8_KD0dWFkgrto-14" value="&lt;font style=&quot;font-size: 14px;&quot;&gt;Balanced 5x5-fold cross-validation split&lt;/font&gt;" style="shape=process;whiteSpace=wrap;html=1;backgroundOutline=1;" vertex="1" parent="1">
          <mxGeometry x="56" y="600" width="140" height="60" as="geometry" />
        </mxCell>
        <mxCell id="fv4rP1R8_KD0dWFkgrto-18" value="&lt;span style=&quot;font-size: 14px;&quot;&gt;Cross-validation&lt;/span&gt;" style="text;html=1;align=right;verticalAlign=middle;whiteSpace=wrap;rounded=0;rotation=-90;" vertex="1" parent="1">
          <mxGeometry x="-44" y="429" width="120" height="30" as="geometry" />
        </mxCell>
        <mxCell id="fv4rP1R8_KD0dWFkgrto-20" value="&lt;span style=&quot;font-size: 14px;&quot;&gt;&amp;nbsp;1x&lt;/span&gt;" style="text;html=1;align=left;verticalAlign=middle;whiteSpace=wrap;rounded=0;rotation=0;" vertex="1" parent="1">
          <mxGeometry x="34" y="670" width="34" height="20" as="geometry" />
        </mxCell>
        <mxCell id="fv4rP1R8_KD0dWFkgrto-32" value="" style="edgeStyle=orthogonalEdgeStyle;rounded=0;orthogonalLoop=1;jettySize=auto;html=1;" edge="1" parent="1" source="fv4rP1R8_KD0dWFkgrto-21" target="fv4rP1R8_KD0dWFkgrto-28">
          <mxGeometry relative="1" as="geometry" />
        </mxCell>
        <mxCell id="fv4rP1R8_KD0dWFkgrto-21" value="&lt;font style=&quot;font-size: 14px;&quot;&gt;Optimal model configuration&lt;/font&gt;" style="shape=hexagon;perimeter=hexagonPerimeter2;whiteSpace=wrap;html=1;fixedSize=1;" vertex="1" parent="1">
          <mxGeometry x="270" y="590" width="120" height="80" as="geometry" />
        </mxCell>
        <mxCell id="fv4rP1R8_KD0dWFkgrto-24" style="edgeStyle=orthogonalEdgeStyle;rounded=0;orthogonalLoop=1;jettySize=auto;html=1;exitX=0.5;exitY=1;exitDx=0;exitDy=0;entryX=0.5;entryY=0;entryDx=0;entryDy=0;" edge="1" parent="1" source="fv4rP1R8_KD0dWFkgrto-25" target="fv4rP1R8_KD0dWFkgrto-27">
          <mxGeometry relative="1" as="geometry" />
        </mxCell>
        <mxCell id="fv4rP1R8_KD0dWFkgrto-25" value="&lt;font style=&quot;font-size: 14px;&quot;&gt;Resample with replacement&lt;/font&gt;" style="shape=process;whiteSpace=wrap;html=1;backgroundOutline=1;" vertex="1" parent="1">
          <mxGeometry x="463" y="414" width="140" height="60" as="geometry" />
        </mxCell>
        <mxCell id="fv4rP1R8_KD0dWFkgrto-26" value="" style="edgeStyle=orthogonalEdgeStyle;rounded=0;orthogonalLoop=1;jettySize=auto;html=1;" edge="1" parent="1" source="fv4rP1R8_KD0dWFkgrto-27" target="fv4rP1R8_KD0dWFkgrto-28">
          <mxGeometry relative="1" as="geometry" />
        </mxCell>
        <mxCell id="fv4rP1R8_KD0dWFkgrto-27" value="&lt;font style=&quot;font-size: 14px;&quot;&gt;Bootstrap set&lt;br&gt;&lt;/font&gt;" style="rounded=1;whiteSpace=wrap;html=1;" vertex="1" parent="1">
          <mxGeometry x="493" y="510" width="80" height="50" as="geometry" />
        </mxCell>
        <mxCell id="fv4rP1R8_KD0dWFkgrto-36" style="edgeStyle=orthogonalEdgeStyle;rounded=0;orthogonalLoop=1;jettySize=auto;html=1;entryX=0.5;entryY=0;entryDx=0;entryDy=0;" edge="1" parent="1" source="fv4rP1R8_KD0dWFkgrto-28" target="fv4rP1R8_KD0dWFkgrto-33">
          <mxGeometry relative="1" as="geometry" />
        </mxCell>
        <mxCell id="fv4rP1R8_KD0dWFkgrto-28" value="&lt;font style=&quot;font-size: 14px;&quot;&gt;Fit bootstrap model&lt;/font&gt;" style="shape=process;whiteSpace=wrap;html=1;backgroundOutline=1;" vertex="1" parent="1">
          <mxGeometry x="463" y="600" width="140" height="60" as="geometry" />
        </mxCell>
        <mxCell id="fv4rP1R8_KD0dWFkgrto-29" value="&lt;span style=&quot;font-size: 14px;&quot;&gt;Bootstrapping&lt;/span&gt;" style="text;html=1;align=right;verticalAlign=middle;whiteSpace=wrap;rounded=0;rotation=-90;" vertex="1" parent="1">
          <mxGeometry x="363" y="429" width="120" height="30" as="geometry" />
        </mxCell>
        <mxCell id="fv4rP1R8_KD0dWFkgrto-30" value="&lt;span style=&quot;font-size: 14px;&quot;&gt;&amp;nbsp;300x&lt;/span&gt;" style="text;html=1;align=left;verticalAlign=middle;whiteSpace=wrap;rounded=0;rotation=0;" vertex="1" parent="1">
          <mxGeometry x="441" y="670" width="34" height="20" as="geometry" />
        </mxCell>
        <mxCell id="fv4rP1R8_KD0dWFkgrto-41" style="edgeStyle=orthogonalEdgeStyle;rounded=0;orthogonalLoop=1;jettySize=auto;html=1;" edge="1" parent="1" source="fv4rP1R8_KD0dWFkgrto-33" target="fv4rP1R8_KD0dWFkgrto-37">
          <mxGeometry relative="1" as="geometry" />
        </mxCell>
        <mxCell id="fv4rP1R8_KD0dWFkgrto-33" value="&lt;font style=&quot;font-size: 14px;&quot;&gt;Bootstrap ensemble&lt;/font&gt;" style="shape=hexagon;perimeter=hexagonPerimeter2;whiteSpace=wrap;html=1;fixedSize=1;" vertex="1" parent="1">
          <mxGeometry x="473" y="720" width="120" height="80" as="geometry" />
        </mxCell>
        <mxCell id="fv4rP1R8_KD0dWFkgrto-43" value="" style="edgeStyle=orthogonalEdgeStyle;rounded=0;orthogonalLoop=1;jettySize=auto;html=1;" edge="1" parent="1" source="fv4rP1R8_KD0dWFkgrto-37" target="fv4rP1R8_KD0dWFkgrto-42">
          <mxGeometry relative="1" as="geometry" />
        </mxCell>
        <mxCell id="fv4rP1R8_KD0dWFkgrto-37" value="&lt;font style=&quot;font-size: 14px;&quot;&gt;Evaluation set&lt;br&gt;(n = 59)&lt;/font&gt;" style="rounded=1;whiteSpace=wrap;html=1;" vertex="1" parent="1">
          <mxGeometry x="683" y="505" width="120" height="60" as="geometry" />
        </mxCell>
        <mxCell id="fv4rP1R8_KD0dWFkgrto-40" value="" style="edgeStyle=orthogonalEdgeStyle;rounded=0;orthogonalLoop=1;jettySize=auto;html=1;" edge="1" parent="1" source="fv4rP1R8_KD0dWFkgrto-38" target="fv4rP1R8_KD0dWFkgrto-37">
          <mxGeometry relative="1" as="geometry" />
        </mxCell>
        <mxCell id="fv4rP1R8_KD0dWFkgrto-38" value="&lt;font style=&quot;font-size: 14px;&quot;&gt;Select available measurement until &lt;i&gt;t&lt;/i&gt;&lt;/font&gt;" style="shape=process;whiteSpace=wrap;html=1;backgroundOutline=1;" vertex="1" parent="1">
          <mxGeometry x="673" y="414" width="140" height="60" as="geometry" />
        </mxCell>
        <mxCell id="fv4rP1R8_KD0dWFkgrto-42" value="&lt;b&gt;&lt;font style=&quot;font-size: 14px;&quot;&gt;Predictions&lt;/font&gt;&lt;/b&gt;" style="ellipse;whiteSpace=wrap;html=1;strokeWidth=3;" vertex="1" parent="1">
          <mxGeometry x="870" y="497.5" width="120" height="75" as="geometry" />
        </mxCell>
        <mxCell id="fv4rP1R8_KD0dWFkgrto-45" value="" style="edgeStyle=orthogonalEdgeStyle;rounded=0;orthogonalLoop=1;jettySize=auto;html=1;" edge="1" parent="1" source="fv4rP1R8_KD0dWFkgrto-44" target="fv4rP1R8_KD0dWFkgrto-38">
          <mxGeometry relative="1" as="geometry" />
        </mxCell>
        <mxCell id="fv4rP1R8_KD0dWFkgrto-44" value="&amp;nbsp;Model applied at: &lt;i&gt;t &lt;/i&gt;days" style="text;html=1;align=left;verticalAlign=middle;whiteSpace=wrap;rounded=0;" vertex="1" parent="1">
          <mxGeometry x="860" y="429" width="180" height="30" as="geometry" />
        </mxCell>
      </root>
    </mxGraphModel>
  </diagram>
</mxfile>
